<svg id="visual" viewBox="0 0 900 450" width="900" height="450" xmlns="http://www.w3.org/2000/svg" xmlns:xlink="http://www.w3.org/1999/xlink" version="1.1"><rect x="0" y="0" width="900" height="450" fill="#2E3440"></rect><path d="M0 326L21.5 321.3C43 316.7 86 307.3 128.8 306C171.7 304.7 214.3 311.3 257.2 308.3C300 305.3 343 292.7 385.8 299C428.7 305.3 471.3 330.7 514.2 330.3C557 330 600 304 642.8 295C685.7 286 728.3 294 771.2 309.5C814 325 857 348 878.5 359.5L900 371L900 451L878.5 451C857 451 814 451 771.2 451C728.3 451 685.7 451 642.8 451C600 451 557 451 514.2 451C471.3 451 428.7 451 385.8 451C343 451 300 451 257.2 451C214.3 451 171.7 451 128.8 451C86 451 43 451 21.5 451L0 451Z" fill="#3b4252"></path><path d="M0 357L21.5 351C43 345 86 333 128.8 324.8C171.7 316.7 214.3 312.3 257.2 316C300 319.7 343 331.3 385.8 339C428.7 346.7 471.3 350.3 514.2 354.8C557 359.3 600 364.7 642.8 369.2C685.7 373.7 728.3 377.3 771.2 370.2C814 363 857 345 878.5 336L900 327L900 451L878.5 451C857 451 814 451 771.2 451C728.3 451 685.7 451 642.8 451C600 451 557 451 514.2 451C471.3 451 428.7 451 385.8 451C343 451 300 451 257.2 451C214.3 451 171.7 451 128.8 451C86 451 43 451 21.5 451L0 451Z" fill="#3f485b"></path><path d="M0 345L21.5 340.2C43 335.3 86 325.7 128.8 328.7C171.7 331.7 214.3 347.3 257.2 349.7C300 352 343 341 385.8 334.3C428.7 327.7 471.3 325.3 514.2 327.8C557 330.3 600 337.7 642.8 339.5C685.7 341.3 728.3 337.7 771.2 338.8C814 340 857 346 878.5 349L900 352L900 451L878.5 451C857 451 814 451 771.2 451C728.3 451 685.7 451 642.8 451C600 451 557 451 514.2 451C471.3 451 428.7 451 385.8 451C343 451 300 451 257.2 451C214.3 451 171.7 451 128.8 451C86 451 43 451 21.5 451L0 451Z" fill="#444f65"></path><path d="M0 371L21.5 375.2C43 379.3 86 387.7 128.8 386.7C171.7 385.7 214.3 375.3 257.2 361.8C300 348.3 343 331.7 385.8 332C428.7 332.3 471.3 349.7 514.2 357.5C557 365.3 600 363.7 642.8 361.3C685.7 359 728.3 356 771.2 349C814 342 857 331 878.5 325.5L900 320L900 451L878.5 451C857 451 814 451 771.2 451C728.3 451 685.7 451 642.8 451C600 451 557 451 514.2 451C471.3 451 428.7 451 385.8 451C343 451 300 451 257.2 451C214.3 451 171.7 451 128.8 451C86 451 43 451 21.5 451L0 451Z" fill="#48566f"></path><path d="M0 359L21.5 366.2C43 373.3 86 387.7 128.8 395C171.7 402.3 214.3 402.7 257.2 400.3C300 398 343 393 385.8 385.8C428.7 378.7 471.3 369.3 514.2 367.2C557 365 600 370 642.8 374.5C685.7 379 728.3 383 771.2 375.8C814 368.7 857 350.3 878.5 341.2L900 332L900 451L878.5 451C857 451 814 451 771.2 451C728.3 451 685.7 451 642.8 451C600 451 557 451 514.2 451C471.3 451 428.7 451 385.8 451C343 451 300 451 257.2 451C214.3 451 171.7 451 128.8 451C86 451 43 451 21.5 451L0 451Z" fill="#4c5d79"></path><path d="M0 371L21.5 374.8C43 378.7 86 386.3 128.8 387.8C171.7 389.3 214.3 384.7 257.2 377.2C300 369.7 343 359.3 385.8 363.5C428.7 367.7 471.3 386.3 514.2 396.7C557 407 600 409 642.8 403C685.7 397 728.3 383 771.2 373.2C814 363.3 857 357.7 878.5 354.8L900 352L900 451L878.5 451C857 451 814 451 771.2 451C728.3 451 685.7 451 642.8 451C600 451 557 451 514.2 451C471.3 451 428.7 451 385.8 451C343 451 300 451 257.2 451C214.3 451 171.7 451 128.8 451C86 451 43 451 21.5 451L0 451Z" fill="#506483"></path><path d="M0 379L21.5 379.8C43 380.7 86 382.3 128.8 386C171.7 389.7 214.3 395.3 257.2 392.3C300 389.3 343 377.7 385.8 377.5C428.7 377.3 471.3 388.7 514.2 395.5C557 402.3 600 404.7 642.8 401.5C685.7 398.3 728.3 389.7 771.2 390.2C814 390.7 857 400.3 878.5 405.2L900 410L900 451L878.5 451C857 451 814 451 771.2 451C728.3 451 685.7 451 642.8 451C600 451 557 451 514.2 451C471.3 451 428.7 451 385.8 451C343 451 300 451 257.2 451C214.3 451 171.7 451 128.8 451C86 451 43 451 21.5 451L0 451Z" fill="#546b8d"></path><path d="M0 403L21.5 403.2C43 403.3 86 403.7 128.8 404C171.7 404.3 214.3 404.7 257.2 404.5C300 404.3 343 403.7 385.8 400.5C428.7 397.3 471.3 391.7 514.2 394.7C557 397.7 600 409.3 642.8 411C685.7 412.7 728.3 404.3 771.2 400C814 395.7 857 395.3 878.5 395.2L900 395L900 451L878.5 451C857 451 814 451 771.2 451C728.3 451 685.7 451 642.8 451C600 451 557 451 514.2 451C471.3 451 428.7 451 385.8 451C343 451 300 451 257.2 451C214.3 451 171.7 451 128.8 451C86 451 43 451 21.5 451L0 451Z" fill="#577297"></path><path d="M0 409L21.5 410.5C43 412 86 415 128.8 416C171.7 417 214.3 416 257.2 414.5C300 413 343 411 385.8 410C428.7 409 471.3 409 514.2 412.3C557 415.7 600 422.3 642.8 424.8C685.7 427.3 728.3 425.7 771.2 424.2C814 422.7 857 421.3 878.5 420.7L900 420L900 451L878.5 451C857 451 814 451 771.2 451C728.3 451 685.7 451 642.8 451C600 451 557 451 514.2 451C471.3 451 428.7 451 385.8 451C343 451 300 451 257.2 451C214.3 451 171.7 451 128.8 451C86 451 43 451 21.5 451L0 451Z" fill="#5b79a2"></path><path d="M0 420L21.5 422.3C43 424.7 86 429.3 128.8 432.5C171.7 435.7 214.3 437.3 257.2 437.5C300 437.7 343 436.3 385.8 434C428.7 431.7 471.3 428.3 514.2 425.5C557 422.7 600 420.3 642.8 419.2C685.7 418 728.3 418 771.2 419.3C814 420.7 857 423.3 878.5 424.7L900 426L900 451L878.5 451C857 451 814 451 771.2 451C728.3 451 685.7 451 642.8 451C600 451 557 451 514.2 451C471.3 451 428.7 451 385.8 451C343 451 300 451 257.2 451C214.3 451 171.7 451 128.8 451C86 451 43 451 21.5 451L0 451Z" fill="#5e81ac"></path></svg>